<?xml version="1.0" standalone="no"?>
<!DOCTYPE svg PUBLIC "-//W3C//DTD SVG 20010904//EN"
 "http://www.w3.org/TR/2001/REC-SVG-20010904/DTD/svg10.dtd">
<svg version="1.0" xmlns="http://www.w3.org/2000/svg"
 width="544.000000pt" height="544.000000pt" viewBox="0 0 544.000000 544.000000"
 preserveAspectRatio="xMidYMid meet">
<metadata>
Created by potrace 1.14, written by Peter Selinger 2001-2017
</metadata>
<g transform="translate(0.000000,544.000000) scale(0.100000,-0.100000)"
fill="#000000" stroke="none">
<path d="M1038 5424 c-2 -1 -25 -5 -53 -9 -107 -16 -120 -18 -197 -46 -140
-51 -258 -127 -362 -234 -61 -63 -146 -175 -146 -193 0 -6 -4 -12 -8 -14 -7
-3 -58 -103 -82 -163 -32 -80 -78 -250 -85 -316 -1 -8 -5 -33 -9 -55 -19 -101
-27 -474 -12 -594 11 -95 17 -134 22 -151 3 -10 7 -30 9 -45 12 -83 56 -248
96 -364 16 -47 31 -92 34 -100 4 -16 48 -124 73 -180 8 -19 16 -37 17 -40 22
-63 167 -349 194 -382 8 -10 10 -18 6 -18 -4 0 -1 -8 7 -17 8 -10 26 -38 40
-63 42 -76 63 -113 103 -175 56 -89 209 -319 215 -325 3 -3 26 -34 51 -70 24
-36 46 -67 49 -70 3 -3 50 -65 105 -137 55 -73 103 -133 107 -133 4 0 8 -7 8
-15 0 -7 6 -18 13 -22 6 -4 31 -33 55 -65 24 -31 53 -67 65 -80 12 -13 38 -44
58 -69 20 -24 47 -55 58 -69 12 -14 32 -36 43 -50 40 -47 152 -175 199 -225
148 -160 185 -199 289 -308 242 -253 614 -612 634 -612 11 0 83 59 165 135 15
14 52 48 82 75 182 164 226 203 258 233 251 232 580 561 721 722 26 30 61 69
77 86 15 16 39 44 53 60 112 132 136 159 143 162 4 2 7 8 7 14 0 6 6 16 14 22
20 17 113 137 225 292 56 77 105 144 109 149 33 41 242 376 265 425 4 8 26 47
48 85 66 117 230 460 229 480 0 3 7 19 16 37 15 29 101 264 109 298 2 8 15 53
30 100 14 47 27 94 29 105 2 11 13 56 25 100 11 44 22 94 25 110 8 49 15 88
21 115 45 221 49 582 9 760 -3 14 -8 35 -10 48 -15 79 -105 303 -125 310 -5 2
-9 10 -9 18 0 8 -4 14 -10 14 -5 0 -10 6 -10 13 0 12 -21 39 -88 112 -135 146
-354 255 -572 283 -111 14 -431 5 -461 -13 -3 -3 -24 -7 -45 -11 -38 -6 -150
-37 -189 -54 -11 -4 -36 -14 -55 -21 -160 -58 -365 -201 -450 -314 -37 -50
-94 -141 -92 -147 1 -5 -1 -8 -6 -8 -4 0 -16 -17 -27 -37 -11 -21 -30 -53 -43
-70 -14 -18 -21 -33 -18 -33 4 0 -1 -12 -12 -27 -21 -31 -118 -229 -152 -313
-12 -30 -26 -64 -31 -75 -39 -88 -85 -225 -148 -444 -43 -149 -49 -161 -56
-130 -4 19 -9 39 -10 44 -2 6 -5 21 -8 35 -3 14 -21 77 -41 140 -32 105 -46
148 -74 220 -5 14 -10 28 -11 32 -7 31 -148 321 -196 403 -19 33 -38 67 -42
75 -4 8 -19 33 -33 55 -15 22 -44 67 -66 100 -42 66 -133 194 -149 211 -5 6
-26 29 -46 51 -20 22 -65 64 -100 93 -213 177 -481 278 -756 284 -62 2 -114 2
-115 0z"/>
</g>
</svg>
