<?xml version="1.0" encoding="UTF-8"?>
<svg width="67px" height="68px" viewBox="0 0 67 68" version="1.1" xmlns="http://www.w3.org/2000/svg" xmlns:xlink="http://www.w3.org/1999/xlink">
    <title>Path</title>
    <g id="Page-1" stroke="none" stroke-width="1" fill="none" fill-rule="evenodd">
        <path d="M7.96220842,1.75173149 C10.833368,0.269520536 14.1810374,0.0890768611 17.2952639,0.900539857 C20.5403696,1.74610557 23.5289376,3.66838049 25.4559467,6.30208092 C29.5243148,11.8624404 32.0860723,17.6486583 33.1444189,23.6571526 C34.7190461,16.7822911 37.1486286,10.9992797 40.4295539,6.30645712 C42.1271094,3.87838383 45.817267,1.86954219 49.8809659,1.14935552 C53.4418891,0.518272993 57.2793256,0.876669702 60.2923991,2.7780563 C62.5830218,4.22354357 64.4034136,6.55876434 65.2639902,10.0386547 C66.003943,13.0307817 66.0329013,16.8768993 65.0281336,21.7393261 C60.7912998,42.2428656 43.5909065,57.642551 34.3586212,65.898485 C33.6719897,66.5125024 33.0296665,67.0868947 32.440339,67.620826 C20.3476559,56.4052502 1.48306129,36.0845578 0.688739756,19.0140996 C0.479940026,14.526865 1.0879518,10.9692537 2.24006669,8.22089919 C3.56299935,5.06506124 5.60355169,2.96936733 7.96220842,1.75173149 Z" id="Path" stroke="#EF72A5" stroke-width="0.5" fill="#EF72A5"></path>
    </g>
</svg>